<svg width="24" height="24" viewBox="0 0 24 24" fill="none" xmlns="http://www.w3.org/2000/svg">
<path d="M8.64645 12.3539C8.45118 12.1586 8.45118 11.842 8.64645 11.6468L11.8284 8.46481C12.0237 8.26954 12.3403 8.26954 12.5355 8.46481C12.7308 8.66007 12.7308 8.97665 12.5355 9.17191L9.73545 11.972C9.73597 11.9814 9.73624 11.9908 9.73624 12.0003C9.73624 12.0027 9.73622 12.0051 9.73619 12.0075C9.73609 12.0146 9.73584 12.0216 9.73545 12.0287L12.5355 14.8288C12.7308 15.024 12.7308 15.3406 12.5355 15.5359C12.3403 15.7311 12.0237 15.7311 11.8284 15.5359L8.64645 12.3539Z" fill="white"/>
</svg>
