<svg width="24" height="24" viewBox="0 0 24 24" fill="none" xmlns="http://www.w3.org/2000/svg">
<path d="M12.3539 8.64645C12.1586 8.45118 11.842 8.45118 11.6468 8.64645L8.46481 11.8284C8.26954 12.0237 8.26954 12.3403 8.46481 12.5355C8.66007 12.7308 8.97665 12.7308 9.17191 12.5355L11.972 9.73545C11.9814 9.73597 11.9908 9.73624 12.0003 9.73624C12.0027 9.73624 12.0051 9.73622 12.0075 9.73619C12.0146 9.73609 12.0216 9.73584 12.0287 9.73545L14.8288 12.5355C15.024 12.7308 15.3406 12.7308 15.5359 12.5355C15.7311 12.3403 15.7311 12.0237 15.5359 11.8284L12.3539 8.64645Z" fill="white"/>
</svg>
