<svg width="24" height="24" viewBox="0 0 24 24" fill="none" xmlns="http://www.w3.org/2000/svg">
<path d="M15.5359 10.4082L12.3539 13.5902C12.1586 13.7855 11.842 13.7855 11.6468 13.5902L8.46481 10.4082C8.26954 10.213 8.26954 9.8964 8.46481 9.70113C8.66007 9.50587 8.97665 9.50587 9.17191 9.70113L11.972 12.5012C11.9814 12.5007 11.9908 12.5004 12.0003 12.5004C12.0027 12.5004 12.0051 12.5004 12.0075 12.5005C12.0146 12.5006 12.0216 12.5008 12.0287 12.5012L14.8288 9.70113C15.024 9.50587 15.3406 9.50587 15.5359 9.70113C15.7311 9.8964 15.7311 10.213 15.5359 10.4082Z" fill="white"/>
</svg>
