<svg width="113" height="20" viewBox="0 0 113 20" fill="none" xmlns="http://www.w3.org/2000/svg">
<path d="M0.191406 19.082C0.11849 19.0091 0.0820312 18.8724 0.0820312 18.6719C0.0820312 18.4167 0.11849 18.2891 0.191406 18.2891C0.355469 18.2891 0.574219 18.2708 0.847656 18.2344C1.12109 18.1797 1.3763 18.1068 1.61328 18.0156C1.85026 17.9245 1.98698 17.8333 2.02344 17.7422C2.09635 17.487 2.14193 17.1589 2.16016 16.7578C2.19661 16.3568 2.21484 15.8737 2.21484 15.3086V4.69922C2.21484 4.13411 2.19661 3.65104 2.16016 3.25C2.14193 2.83073 2.09635 2.5026 2.02344 2.26562C1.98698 2.15625 1.85026 2.0651 1.61328 1.99219C1.3763 1.90104 1.12109 1.82812 0.847656 1.77344C0.574219 1.71875 0.355469 1.69141 0.191406 1.69141C0.11849 1.69141 0.0820312 1.57292 0.0820312 1.33594C0.0820312 1.11719 0.11849 0.971354 0.191406 0.898438C0.355469 0.898438 0.628906 0.916667 1.01172 0.953125C1.41276 0.971354 1.84115 0.998698 2.29688 1.03516C2.7526 1.05339 3.14453 1.0625 3.47266 1.0625C4.05599 1.0625 4.63932 1.04427 5.22266 1.00781C5.80599 0.953125 6.27995 0.916667 6.64453 0.898438C6.68099 0.971354 6.6901 1.1263 6.67188 1.36328C6.67188 1.58203 6.64453 1.69141 6.58984 1.69141C6.48047 1.69141 6.28906 1.72786 6.01562 1.80078C5.74219 1.85547 5.48698 1.92839 5.25 2.01953C5.01302 2.09245 4.8763 2.17448 4.83984 2.26562C4.67578 2.88542 4.59375 3.73307 4.59375 4.80859V8.88281L4.64844 8.96484C5.54167 8.98307 6.33464 9.0013 7.02734 9.01953C7.72005 9.01953 8.3125 9.01953 8.80469 9.01953C9.33333 9.01953 9.9349 9.01953 10.6094 9.01953C11.2839 9.0013 12.0312 8.98307 12.8516 8.96484C12.888 8.92839 12.9062 8.89193 12.9062 8.85547V4.69922C12.9062 4.13411 12.888 3.65104 12.8516 3.25C12.8333 2.83073 12.7878 2.5026 12.7148 2.26562C12.6784 2.15625 12.5417 2.0651 12.3047 1.99219C12.0677 1.90104 11.8125 1.82812 11.5391 1.77344C11.2656 1.71875 11.0469 1.69141 10.8828 1.69141C10.8099 1.69141 10.7734 1.57292 10.7734 1.33594C10.7734 1.11719 10.8099 0.971354 10.8828 0.898438C11.0286 0.898438 11.3021 0.916667 11.7031 0.953125C12.1042 0.971354 12.5326 0.998698 12.9883 1.03516C13.4622 1.05339 13.8633 1.0625 14.1914 1.0625C14.7747 1.0625 15.349 1.04427 15.9141 1.00781C16.4792 0.953125 16.944 0.916667 17.3086 0.898438C17.3451 1.04427 17.3633 1.18099 17.3633 1.30859C17.3633 1.5638 17.3268 1.69141 17.2539 1.69141C17.1445 1.69141 16.9531 1.72786 16.6797 1.80078C16.4062 1.85547 16.151 1.92839 15.9141 2.01953C15.6771 2.09245 15.5404 2.17448 15.5039 2.26562C15.431 2.55729 15.3763 2.91276 15.3398 3.33203C15.3034 3.7513 15.2852 4.24349 15.2852 4.80859V15.1992C15.2852 15.7643 15.3034 16.2565 15.3398 16.6758C15.3763 17.0951 15.431 17.4505 15.5039 17.7422C15.5404 17.8151 15.6771 17.8971 15.9141 17.9883C16.151 18.0794 16.4062 18.1523 16.6797 18.207C16.9531 18.2617 17.1445 18.2891 17.2539 18.2891C17.3268 18.2891 17.3633 18.4258 17.3633 18.6992C17.3633 18.8086 17.3451 18.9362 17.3086 19.082C16.3971 19.0456 15.6771 19.0182 15.1484 19C14.638 18.9635 14.319 18.9453 14.1914 18.9453L10.8828 19.082C10.8099 19.0091 10.7734 18.8542 10.7734 18.6172C10.7734 18.3984 10.8099 18.2891 10.8828 18.2891C11.0469 18.2891 11.2656 18.2708 11.5391 18.2344C11.8125 18.1797 12.0677 18.1068 12.3047 18.0156C12.5417 17.9245 12.6784 17.8333 12.7148 17.7422C12.7878 17.487 12.8333 17.1589 12.8516 16.7578C12.888 16.3568 12.9062 15.8737 12.9062 15.3086V10.4961L12.8516 10.3867C11.9948 10.3685 11.2292 10.3594 10.5547 10.3594C9.88021 10.3411 9.29688 10.332 8.80469 10.332C5.9974 10.332 4.59375 10.3776 4.59375 10.4688V15.1992C4.59375 16.2565 4.67578 17.1042 4.83984 17.7422C4.8763 17.8151 5.01302 17.8971 5.25 17.9883C5.48698 18.0794 5.74219 18.1523 6.01562 18.207C6.28906 18.2617 6.48047 18.2891 6.58984 18.2891C6.64453 18.2891 6.67188 18.3984 6.67188 18.6172C6.6901 18.8359 6.68099 18.9909 6.64453 19.082C5.73307 19.0456 5.01302 19.0182 4.48438 19C3.95573 18.9635 3.61849 18.9453 3.47266 18.9453L0.191406 19.082ZM22.3398 19.1914C21.5013 19.1914 20.8086 18.9727 20.2617 18.5352C19.7148 18.0794 19.4414 17.4049 19.4414 16.5117C19.4414 15.418 20.1523 14.5065 21.5742 13.7773C22.194 13.4674 22.8047 13.2214 23.4062 13.0391C24.026 12.8568 24.6458 12.6471 25.2656 12.4102C25.4297 12.3555 25.5117 12.2188 25.5117 12V9.94922C25.5117 9.36589 25.3294 8.91927 24.9648 8.60938C24.6003 8.28125 24.1628 8.11719 23.6523 8.11719C23.1055 8.11719 22.6497 8.30859 22.2852 8.69141C21.9206 9.05599 21.7383 9.53906 21.7383 10.1406C21.7383 10.7786 21.3646 11.0977 20.6172 11.0977C20.0885 11.0977 19.7331 10.9245 19.5508 10.5781C19.5508 10.1953 19.7057 9.80339 20.0156 9.40234C20.3438 8.98307 20.763 8.60026 21.2734 8.25391C21.7839 7.90755 22.3398 7.625 22.9414 7.40625C23.5612 7.1875 24.1719 7.07812 24.7734 7.07812C25.776 7.07812 26.4961 7.32422 26.9336 7.81641C27.3711 8.29036 27.5898 9.0651 27.5898 10.1406V16.457C27.5898 16.8398 27.6901 17.1589 27.8906 17.4141C28.0911 17.6693 28.3646 17.7969 28.7109 17.7969C28.9479 17.7969 29.2669 17.6693 29.668 17.4141C29.7409 17.4141 29.7773 17.487 29.7773 17.6328C29.7773 17.8698 29.7318 18.0612 29.6406 18.207C28.8932 18.8451 28.2552 19.1641 27.7266 19.1641C27.3073 19.1641 26.9062 18.9909 26.5234 18.6445C26.1406 18.2982 25.8763 17.9336 25.7305 17.5508C25.6393 17.6237 25.5208 17.724 25.375 17.8516C25.2474 17.9609 25.138 18.0521 25.0469 18.125C24.6641 18.4167 24.2448 18.6719 23.7891 18.8906C23.3516 19.0911 22.8685 19.1914 22.3398 19.1914ZM23.3789 17.6328C23.8893 17.6328 24.3724 17.487 24.8281 17.1953C25.2839 16.9036 25.5117 16.5938 25.5117 16.2656V13.4492C25.0378 13.6315 24.582 13.7956 24.1445 13.9414C23.7253 14.0872 23.388 14.2057 23.1328 14.2969C22.8047 14.4245 22.4857 14.6523 22.1758 14.9805C21.8841 15.3086 21.7383 15.6823 21.7383 16.1016C21.7383 16.6484 21.9023 17.0404 22.2305 17.2773C22.5768 17.5143 22.9596 17.6328 23.3789 17.6328ZM30.9531 19.082C30.8802 19.0091 30.8438 18.8542 30.8438 18.6172C30.8438 18.3984 30.8802 18.2891 30.9531 18.2891C31.099 18.2891 31.2995 18.2617 31.5547 18.207C31.8099 18.1523 32.0469 18.0794 32.2656 17.9883C32.4844 17.8971 32.6029 17.8151 32.6211 17.7422C32.694 17.487 32.7396 17.1953 32.7578 16.8672C32.7943 16.5391 32.8125 16.1927 32.8125 15.8281V10.6602C32.8125 9.96745 32.6849 9.47526 32.4297 9.18359C32.2474 8.96484 32.0286 8.81901 31.7734 8.74609C31.5365 8.67318 31.3177 8.63672 31.1172 8.63672C30.9349 8.61849 30.8438 8.59115 30.8438 8.55469C30.8438 8.11719 30.8984 7.88932 31.0078 7.87109C32.9948 7.5612 34.1432 7.36068 34.4531 7.26953L34.918 7.13281C34.9909 7.11458 35.0365 7.1875 35.0547 7.35156C35.0729 7.51562 35.0729 7.63411 35.0547 7.70703L34.8906 9.07422C35.2188 8.58203 35.6654 8.1263 36.2305 7.70703C36.8138 7.26953 37.388 7.05078 37.9531 7.05078C39.0104 7.05078 39.7214 7.3151 40.0859 7.84375C40.0859 8.48177 39.9857 8.94661 39.7852 9.23828C39.5846 9.52995 39.3385 9.67578 39.0469 9.67578C38.7188 9.67578 38.418 9.52083 38.1445 9.21094C37.8711 8.90104 37.4974 8.74609 37.0234 8.74609C36.6589 8.74609 36.3125 8.8737 35.9844 9.12891C35.6562 9.36589 35.3919 9.67578 35.1914 10.0586C35.0091 10.4232 34.918 10.806 34.918 11.207V15.3086C34.918 15.8372 34.9362 16.3021 34.9727 16.7031C35.0091 17.1042 35.0638 17.4505 35.1367 17.7422C35.1732 17.8151 35.3008 17.8971 35.5195 17.9883C35.7383 18.0794 35.9753 18.1523 36.2305 18.207C36.5039 18.2617 36.6953 18.2891 36.8047 18.2891C36.8594 18.2891 36.8958 18.3984 36.9141 18.6172C36.9323 18.8359 36.9232 18.9909 36.8867 19.082L33.9336 18.9453L30.9531 19.082ZM50.3672 19.2188C50.2214 19.2188 50.1484 19.0729 50.1484 18.7812V17.3867C50.1484 17.2956 50.1302 17.25 50.0938 17.25C48.8906 18.5443 47.6966 19.1914 46.5117 19.1914C45.6549 19.1914 44.9714 18.9453 44.4609 18.4531C43.9688 17.9427 43.6133 17.3047 43.3945 16.5391C43.194 15.7552 43.0938 14.944 43.0938 14.1055V10.6602C43.0938 9.96745 42.9661 9.47526 42.7109 9.18359C42.5286 8.96484 42.3099 8.81901 42.0547 8.74609C41.8177 8.67318 41.599 8.63672 41.3984 8.63672C41.2161 8.61849 41.125 8.59115 41.125 8.55469C41.125 8.11719 41.1797 7.88932 41.2891 7.87109C42.2552 7.72526 43.0299 7.59766 43.6133 7.48828C44.2148 7.36068 44.5612 7.28776 44.6523 7.26953L45.1992 7.13281C45.2721 7.11458 45.3177 7.1875 45.3359 7.35156C45.3542 7.51562 45.3542 7.63411 45.3359 7.70703C45.2266 8.58203 45.1719 9.25651 45.1719 9.73047V13.4219C45.1719 14.8255 45.3815 15.8646 45.8008 16.5391C46.2201 17.1953 46.9036 17.5234 47.8516 17.5234C48.2161 17.5234 48.5716 17.4232 48.918 17.2227C49.2826 17.0221 49.5742 16.7852 49.793 16.5117C50.0299 16.2201 50.1484 15.974 50.1484 15.7734V10.6602C50.1484 9.96745 50.0208 9.47526 49.7656 9.18359C49.5833 8.96484 49.3646 8.81901 49.1094 8.74609C48.8724 8.67318 48.6536 8.6276 48.4531 8.60938C48.2708 8.59115 48.1797 8.57292 48.1797 8.55469C48.1797 8.11719 48.2344 7.88932 48.3438 7.87109C49.3099 7.72526 50.0299 7.60677 50.5039 7.51562C50.9961 7.42448 51.388 7.34245 51.6797 7.26953L52.2539 7.13281C52.3268 7.11458 52.3724 7.1875 52.3906 7.35156C52.4089 7.51562 52.4089 7.63411 52.3906 7.70703C52.2812 8.58203 52.2266 9.23828 52.2266 9.67578V15.1445C52.2266 15.9648 52.2904 16.6576 52.418 17.2227C52.4727 17.4049 52.6185 17.5234 52.8555 17.5781C53.0924 17.6146 53.3659 17.651 53.6758 17.6875L54.0312 17.7148C54.0859 17.7331 54.1133 17.8333 54.1133 18.0156C54.1133 18.0703 54.0859 18.1615 54.0312 18.2891C53.9948 18.3984 53.9492 18.4531 53.8945 18.4531C53.3477 18.4896 52.7461 18.5898 52.0898 18.7539C51.4336 18.8997 50.9414 19.0365 50.6133 19.1641L50.3672 19.2188ZM70.6016 19.1641C69.3984 19.1641 68.2682 18.9271 67.2109 18.4531C66.1719 17.9792 65.2513 17.332 64.4492 16.5117C63.6654 15.6914 63.0456 14.7435 62.5898 13.668C62.1523 12.5742 61.9336 11.4167 61.9336 10.1953C61.9336 8.90104 62.1615 7.6888 62.6172 6.55859C63.0729 5.41016 63.7109 4.40755 64.5312 3.55078C65.3516 2.67578 66.2995 1.99219 67.375 1.5C68.4688 1.00781 69.6445 0.761719 70.9023 0.761719C71.9779 0.761719 73.0716 0.816406 74.1836 0.925781C75.2956 1.03516 76.4167 1.20833 77.5469 1.44531L77.4922 5.38281C77.4922 5.65625 77.3008 5.79297 76.918 5.79297C76.7357 5.79297 76.6172 5.7474 76.5625 5.65625C76.5078 5.41927 76.4349 5.18229 76.3438 4.94531C76.2708 4.6901 76.1068 4.36198 75.8516 3.96094C75.4141 3.32292 74.7852 2.82161 73.9648 2.45703C73.1628 2.09245 72.1693 1.91016 70.9844 1.91016C70.0911 1.91016 69.2526 2.12891 68.4688 2.56641C67.6849 2.98568 66.9922 3.5599 66.3906 4.28906C65.8073 5.01823 65.3516 5.84766 65.0234 6.77734C64.6953 7.6888 64.5312 8.63672 64.5312 9.62109C64.5312 11.1341 64.7865 12.4922 65.2969 13.6953C65.8073 14.9349 66.6094 15.9648 67.7031 16.7852C68.8151 17.5872 70.1276 17.9883 71.6406 17.9883C73.4453 17.9883 74.8398 17.4596 75.8242 16.4023C76.1159 16.0924 76.3438 15.7279 76.5078 15.3086C76.6719 14.8893 76.7995 14.5247 76.8906 14.2148C76.9818 13.9049 77.0729 13.75 77.1641 13.75C77.2734 13.75 77.401 13.7682 77.5469 13.8047C77.7109 13.8229 77.8385 13.8594 77.9297 13.9141L78.0664 13.9961C78.0664 14.1055 78.0299 14.3607 77.957 14.7617C77.8841 15.1628 77.793 15.6094 77.6836 16.1016C77.5742 16.5755 77.4648 16.9948 77.3555 17.3594C77.2643 17.724 77.1914 17.9245 77.1367 17.9609C75.7878 18.763 73.6094 19.1641 70.6016 19.1641ZM85.668 19.1914C84.5742 19.1914 83.5716 18.918 82.6602 18.3711C81.7487 17.8242 81.0195 17.0859 80.4727 16.1562C79.944 15.2266 79.6797 14.2057 79.6797 13.0938C79.6797 11.9635 79.9349 10.9427 80.4453 10.0312C80.974 9.11979 81.6849 8.39974 82.5781 7.87109C83.4714 7.32422 84.4831 7.05078 85.6133 7.05078C86.707 7.05078 87.7005 7.32422 88.5938 7.87109C89.5052 8.41797 90.2253 9.14714 90.7539 10.0586C91.3008 10.9701 91.5742 11.9818 91.5742 13.0938C91.5742 14.2057 91.3099 15.2266 90.7812 16.1562C90.2526 17.0859 89.5417 17.8242 88.6484 18.3711C87.7734 18.918 86.7799 19.1914 85.668 19.1914ZM85.9141 18.125C86.5703 18.125 87.1445 17.9154 87.6367 17.4961C88.1289 17.0768 88.5117 16.5117 88.7852 15.8008C89.0768 15.0898 89.2227 14.3151 89.2227 13.4766C89.2227 12.4922 89.0404 11.599 88.6758 10.7969C88.3112 9.97656 87.8281 9.32943 87.2266 8.85547C86.6432 8.36328 86.0052 8.11719 85.3125 8.11719C84.6745 8.11719 84.1003 8.32682 83.5898 8.74609C83.0977 9.14714 82.7148 9.69401 82.4414 10.3867C82.168 11.0612 82.0312 11.8268 82.0312 12.6836C82.0312 13.668 82.2044 14.5794 82.5508 15.418C82.9154 16.2383 83.3893 16.8945 83.9727 17.3867C84.5742 17.8789 85.2214 18.125 85.9141 18.125ZM98 19.1914C97.0885 19.1914 96.3229 18.8906 95.7031 18.2891C95.1016 17.6875 94.8008 16.8307 94.8008 15.7188V8.77344H93.2148C93.1237 8.77344 93.0781 8.58203 93.0781 8.19922C93.0781 8.08984 93.0872 8.02604 93.1055 8.00781C93.6523 7.7526 94.2266 7.26953 94.8281 6.55859C95.2474 6.06641 95.5573 5.63802 95.7578 5.27344C95.9766 4.90885 96.0859 4.6901 96.0859 4.61719C96.6328 4.61719 96.9062 4.66276 96.9062 4.75391V7.46094L99.0664 7.48828H100.598C100.743 7.48828 100.816 7.57031 100.816 7.73438C100.816 8.08073 100.725 8.42708 100.543 8.77344H96.9062V15.4727C96.9062 16.2018 97.0885 16.7852 97.4531 17.2227C97.8359 17.6602 98.3281 17.8789 98.9297 17.8789C99.4948 17.8789 100.06 17.7057 100.625 17.3594C100.68 17.3229 100.762 17.4049 100.871 17.6055C100.98 17.7878 101.026 17.888 101.008 17.9062C100.734 18.1979 100.315 18.4896 99.75 18.7812C99.1849 19.0547 98.6016 19.1914 98 19.1914ZM107.734 19.1641C106.732 19.1641 105.811 18.8997 104.973 18.3711C104.134 17.8424 103.46 17.1406 102.949 16.2656C102.457 15.3724 102.211 14.3789 102.211 13.2852C102.211 12.0091 102.448 10.9062 102.922 9.97656C103.396 9.04688 104.043 8.33594 104.863 7.84375C105.684 7.33333 106.604 7.07812 107.625 7.07812C108.464 7.07812 109.202 7.24219 109.84 7.57031C110.478 7.88021 110.97 8.28125 111.316 8.77344C111.645 9.28385 111.882 9.80339 112.027 10.332C112.191 10.8424 112.273 11.3529 112.273 11.8633C112.273 12.2279 112.219 12.4557 112.109 12.5469C112 12.6198 111.79 12.6562 111.48 12.6562H104.59C104.444 12.6562 104.371 12.7018 104.371 12.793C104.371 13.5586 104.526 14.2969 104.836 15.0078C105.146 15.7005 105.602 16.2747 106.203 16.7305C106.805 17.1862 107.543 17.4141 108.418 17.4141C109.184 17.4141 109.822 17.3047 110.332 17.0859C110.861 16.849 111.243 16.6393 111.48 16.457L111.672 16.3203C111.781 16.3203 111.836 16.4388 111.836 16.6758C111.836 16.8034 111.781 16.9674 111.672 17.168C111.307 17.6784 110.77 18.1432 110.059 18.5625C109.348 18.9635 108.573 19.1641 107.734 19.1641ZM104.59 11.5078H109.922C110.013 11.5078 110.059 11.4167 110.059 11.2344C110.059 10.8333 109.949 10.3958 109.73 9.92188C109.53 9.42969 109.22 9.0013 108.801 8.63672C108.382 8.27214 107.853 8.08984 107.215 8.08984C106.632 8.08984 106.13 8.29036 105.711 8.69141C105.292 9.07422 104.973 9.52083 104.754 10.0312C104.535 10.5234 104.426 10.9518 104.426 11.3164C104.426 11.444 104.48 11.5078 104.59 11.5078Z" fill="black"/>
</svg>
